Normalized EMG Linear Envelopes
nRows=81
nColumns=4

endheader
time	 med_gas_r	  soleus_r	 tib_ant_r	
4.50907	  0.030351	  0.023376	  0.005384	
4.58065	  0.030358	  0.023918	  0.005343	
4.65222	  0.031291	  0.024205	  0.005388	
4.72379	  0.032160	  0.024167	  0.005531	
4.79536	  0.032847	  0.023819	  0.005704	
4.86694	  0.033861	  0.023074	  0.005804	
4.93851	  0.034560	  0.022378	  0.005751	
5.01008	  0.034415	  0.022149	  0.005511	
5.08165	  0.033430	  0.021870	  0.005251	
5.15323	  0.031993	  0.021242	  0.004957	
5.2248	  0.031055	  0.020429	  0.004565	
5.29637	  0.031012	  0.019893	  0.004394	
5.36794	  0.031640	  0.019611	  0.005281	
5.43952	  0.032316	  0.020951	  0.008596	
5.51109	  0.032811	  0.026789	  0.015244	
5.58266	  0.033373	  0.039429	  0.025102	
5.65423	  0.035328	  0.059595	  0.040022	
5.72581	  0.041428	  0.090388	  0.060489	
5.79738	  0.054522	  0.129965	  0.084642	
5.86895	  0.075431	  0.170885	  0.109259	
5.94052	  0.101647	  0.205024	  0.126131	
6.0121	  0.133726	  0.227633	  0.132478	
6.08367	  0.169473	  0.235437	  0.134123	
6.15524	  0.198652	  0.240078	  0.137011	
6.22681	  0.228610	  0.255374	  0.145861	
6.29839	  0.279509	  0.287832	  0.162051	
6.36996	  0.337792	  0.328212	  0.179685	
6.44153	  0.366797	  0.365949	  0.191581	
6.5131	  0.376471	  0.398724	  0.192524	
6.58468	  0.364007	  0.414472	  0.186798	
6.65625	  0.331895	  0.428319	  0.180857	
6.72782	  0.308600	  0.454840	  0.176475	
6.7994	  0.298902	  0.473755	  0.174076	
6.87097	  0.304783	  0.463448	  0.172267	
6.94254	  0.319038	  0.448422	  0.167402	
7.01411	  0.332528	  0.436435	  0.166631	
7.08569	  0.342380	  0.439447	  0.172403	
7.15726	  0.348440	  0.453098	  0.175162	
7.22883	  0.350477	  0.473454	  0.172260	
7.3004	  0.351543	  0.492559	  0.167608	
7.37198	  0.360649	  0.496952	  0.162247	
7.44355	  0.371486	  0.487095	  0.158295	
7.51512	  0.376858	  0.480963	  0.161082	
7.58669	  0.369328	  0.477329	  0.167053	
7.65827	  0.349571	  0.478708	  0.169337	
7.72984	  0.324144	  0.491798	  0.167669	
7.80141	  0.311199	  0.515953	  0.164911	
7.87298	  0.313971	  0.536436	  0.163780	
7.94456	  0.323917	  0.547599	  0.165958	
8.01613	  0.345114	  0.556302	  0.170147	
8.0877	  0.382227	  0.581499	  0.171559	
8.15927	  0.436128	  0.615356	  0.174131	
8.23085	  0.500034	  0.642488	  0.179117	
8.30242	  0.538623	  0.646467	  0.186405	
8.37399	  0.539295	  0.635590	  0.194411	
8.44556	  0.518473	  0.611036	  0.196229	
8.51714	  0.507852	  0.563612	  0.192142	
8.58871	  0.516425	  0.527124	  0.187331	
8.66028	  0.523531	  0.518486	  0.188872	
8.73185	  0.516491	  0.511073	  0.191965	
8.80343	  0.498195	  0.510872	  0.190215	
8.875	  0.474747	  0.509197	  0.181552	
8.94657	  0.443580	  0.496080	  0.169601	
9.01815	  0.419678	  0.465734	  0.159376	
9.08972	  0.400495	  0.437603	  0.154502	
9.16129	  0.390785	  0.434689	  0.154711	
9.23286	  0.397284	  0.445958	  0.157936	
9.30444	  0.415726	  0.455842	  0.163006	
9.37601	  0.451671	  0.468055	  0.174485	
9.44758	  0.508247	  0.494886	  0.192866	
9.51915	  0.562804	  0.538302	  0.210291	
9.59073	  0.610789	  0.584049	  0.219111	
9.6623	  0.638916	  0.625536	  0.220295	
9.73387	  0.638334	  0.646106	  0.220292	
9.80544	  0.595840	  0.624955	  0.214264	
9.87702	  0.509615	  0.547317	  0.194805	
9.94859	  0.386934	  0.434104	  0.162483	
10.0202	  0.263029	  0.310629	  0.128192	
10.0917	  0.163881	  0.207689	  0.103489	
10.1633	  0.091526	  0.127809	  0.088151	
10.2349	  0.049186	  0.073095	  0.080663	
